<?xml version="1.0" standalone="no"?><!DOCTYPE svg PUBLIC "-//W3C//DTD SVG 1.1//EN" "http://www.w3.org/Graphics/SVG/1.1/DTD/svg11.dtd"><svg t="1600153311708" class="icon" viewBox="0 0 1024 1024" version="1.1" xmlns="http://www.w3.org/2000/svg" p-id="12522" xmlns:xlink="http://www.w3.org/1999/xlink" width="290" height="290"><defs><style type="text/css"></style></defs><path d="M512 46.324c257.185 0 465.676 208.491 465.676 465.676S769.185 977.676 512 977.676 46.324 769.185 46.324 512 254.815 46.324 512 46.324z" fill="#F887A3" p-id="12523"></path><path d="M688.201 332.395h-90.578l41.04-40.918c7.079-7.056 7.079-16.933 0-23.986-7.074-7.056-16.98-7.056-24.056 0l-69.351 69.137h-67.933l-69.347-69.137c-5.661-7.056-14.153-8.468-22.645-4.233-1.414 0-1.414 1.41-2.828 2.821-7.078 7.056-7.078 16.933 0 23.986l42.455 42.33h-90.576c-49.532 0-90.575 40.919-90.575 90.302v224.344c0 47.972 41.043 88.89 90.575 88.89h14.153c0 16.933 14.154 29.63 29.72 29.63s29.721-14.108 29.721-29.63h209.457c1.417 16.933 15.57 29.63 32.551 28.22 15.57-1.41 26.892-12.698 28.306-28.22h11.323c49.532 0 90.575-40.918 90.575-90.301V421.286c-1.414-49.384-42.457-88.893-91.99-88.893z" fill="#FDDDE5" p-id="12524"></path><path d="M453.964 472.678l4.654 23.223a9.752 9.752 0 0 1-7.768 11.503l-94.003 17.586a9.752 9.752 0 0 1-11.357-7.67l-4.654-23.22a9.752 9.752 0 0 1 7.77-11.503l94-17.589a9.752 9.752 0 0 1 11.358 7.67z m108.982 23.223l4.652-23.223a9.752 9.752 0 0 1 11.357-7.67l94 17.589a9.752 9.752 0 0 1 7.77 11.503l-4.656 23.22a9.752 9.752 0 0 1-11.354 7.67l-94.003-17.586a9.752 9.752 0 0 1-7.768-11.503z m42.545 104.022c-9.401 20.862-30.081 34.14-54.523 36.035-15.038 0-30.079-7.585-39.48-18.966-11.281 11.38-24.44 18.968-39.48 18.968-22.56-1.897-43.242-15.175-54.52-36.037 0-1.897-1.88-3.794-1.88-7.588 0-7.587 5.639-13.278 13.158-15.174h1.88c5.641 0 9.4 1.896 11.28 7.587 0 0 15.044 20.865 28.202 20.865 22.618 0 25.798-16.808 35.791-32.37a51.363 51.363 0 0 1 1.714-2.47 4.876 4.876 0 0 1 7.793-0.103 64.175 64.175 0 0 1 1.982 2.682c11.427 16.548 14.23 32.261 35.442 32.261 16.92 0 28.2-20.865 28.2-20.865 1.88-3.794 7.52-7.585 11.28-7.585 7.52-1.897 13.159 3.791 15.041 11.379v3.793c0 1.897 0 5.69-1.882 7.588z" fill="#F98EAA" p-id="12525"></path></svg>