<?xml version="1.0" standalone="no"?><!DOCTYPE svg PUBLIC "-//W3C//DTD SVG 1.1//EN" "http://www.w3.org/Graphics/SVG/1.1/DTD/svg11.dtd"><svg t="1600153222983" class="icon" viewBox="0 0 1024 1024" version="1.1" xmlns="http://www.w3.org/2000/svg" p-id="10984" xmlns:xlink="http://www.w3.org/1999/xlink" width="290" height="290"><defs><style type="text/css"></style></defs><path d="M616.432194 587.830945c-120.049982 0-217.896362-96.341051-217.896362-214.885704s97.84638-214.885704 217.896362-214.885704 217.896362 96.341051 217.896362 214.885704-97.84638 214.885704-217.896362 214.885704z m0-414.341787c-111.770673 0-202.843072 89.567071-202.843072 199.832415s91.0724 199.832415 202.843072 199.832415 202.843072-89.567071 202.843072-199.832415-91.0724-199.832415-202.843072-199.832415z" fill="" p-id="10985"></path><path d="M931.798603 865.564131c-4.139655 0-7.526645-3.38699-7.526644-7.526645 0-149.027563-131.716281-270.206542-293.915472-270.206541-160.693863 0-281.872841 116.286659-281.872841 270.206541 0 4.139655-3.38699 7.526645-7.526645 7.526645s-7.526645-3.38699-7.526645-7.526645c0-78.653436 30.482911-151.285557 86.180081-204.348401 54.944506-52.31018 129.83462-81.287762 210.369717-81.287762 81.287762 0 158.435869 28.60125 216.391033 80.91143 59.836825 53.439177 92.577729 126.071297 92.577729 204.348401 0.376332 4.892319-3.010658 7.902977-7.150313 7.902977z" fill="" p-id="10986"></path><path d="M367.676589 587.830945c-120.049982 0-217.896362-96.341051-217.896361-214.885704S247.626608 158.059537 367.676589 158.059537c45.5362 0 88.814406 13.54796 125.694966 39.514884l-8.655642 12.418964c-34.246233-24.085263-74.890114-36.880559-117.039324-36.880559C255.905917 173.112826 164.833517 262.679897 164.833517 372.945241s91.0724 199.832415 202.843072 199.832414c43.654539 0 85.051084-13.54796 120.049982-38.762219l8.655641 12.042631c-37.633223 27.472253-82.040426 41.772878-128.705623 41.772878z" fill="" p-id="10987"></path><path d="M92.201397 865.564131c-4.139655 0-7.526645-3.38699-7.526645-7.526645 0-78.653436 30.482911-151.285557 86.180081-204.348401 54.944506-52.31018 129.83462-81.287762 210.369717-81.287762 30.859243 0 61.718486 4.139655 91.0724 12.418964 4.139655 1.128997 6.397648 5.268651 5.268651 9.408305-1.128997 4.139655-5.268651 6.397648-9.408306 5.268652-28.224917-7.902977-57.578831-12.042631-86.932745-12.042632-160.693863 0-281.872841 116.286659-281.872841 270.206542 0.376332 4.892319-2.634326 7.902977-7.150312 7.902977z" fill="" p-id="10988"></path></svg>