<?xml version="1.0" standalone="no"?><!DOCTYPE svg PUBLIC "-//W3C//DTD SVG 1.1//EN" "http://www.w3.org/Graphics/SVG/1.1/DTD/svg11.dtd"><svg t="1600154342549" class="icon" viewBox="0 0 1024 1024" version="1.1" xmlns="http://www.w3.org/2000/svg" p-id="7311" xmlns:xlink="http://www.w3.org/1999/xlink" width="290" height="290"><defs><style type="text/css"></style></defs><path d="M511 832.6C265.9 832.6 66.9 638 66.9 511s199-321.6 444.1-321.6S955.1 384 955.1 511c0 144.8-204.9 321.6-444.1 321.6z m0-581.9c-217.3 0-382.8 173.5-382.8 260.3S293.7 771.3 511 771.3c98.2 0 195.4-33.1 273.7-93.2C852 626.5 893.8 562.4 893.8 511c0-86.8-165.5-260.3-382.8-260.3z" p-id="7312"></path><path d="M511 679.4c-92.9 0-168.4-75.6-168.4-168.4S418.1 342.6 511 342.6 679.4 418.1 679.4 511 603.9 679.4 511 679.4z m0-275.6c-59.1 0-107.2 48.1-107.2 107.2S451.9 618.2 511 618.2 618.2 570.1 618.2 511 570.1 403.8 511 403.8z" p-id="7313"></path></svg>