<?xml version="1.0" standalone="no"?><!DOCTYPE svg PUBLIC "-//W3C//DTD SVG 1.1//EN" "http://www.w3.org/Graphics/SVG/1.1/DTD/svg11.dtd"><svg t="1600153328219" class="icon" viewBox="0 0 1024 1024" version="1.1" xmlns="http://www.w3.org/2000/svg" p-id="13229" xmlns:xlink="http://www.w3.org/1999/xlink" width="290" height="290"><defs><style type="text/css"></style></defs><path d="M725.3 556.7c0 17.2-10.4 32.8-26.3 39.4-5.3 2.2-10.8 3.2-16.3 3.2-11.1 0-22-4.3-30.2-12.5L472.8 407.1c-1.3-1.3-3.4-0.4-3.4 1.4V556c0 23.4-18.5 43-41.9 43.4-23.9 0.4-43.4-18.8-43.4-42.7v-256c0-17.2 10.4-32.8 26.3-39.4 16-6.6 34.3-3 46.5 9.2l179.7 179.8c1.3 1.3 3.4 0.4 3.4-1.4V301.4c0-23.4 18.5-43 41.9-43.4 23.9-0.4 43.4 18.9 43.4 42.7v256z" fill="#F9DB88" p-id="13230"></path><path d="M853.3 87.4H256c-23.5 0-42.7 19.2-42.7 42.7h-41.9c-23.8 0-43.8 19.5-43.4 43.2 0.3 23.2 19.4 42.1 42.7 42.1h40.7c1.1 0 2 0.9 2 2v81.3c0 1.1-0.9 2-2 2h-39.9c-23.8 0-43.8 19.5-43.4 43.2 0.3 23.2 19.4 42.1 42.7 42.1h40.7c1.1 0 2 0.9 2 2v81.3c0 1.1-0.9 2-2 2h-39.9c-23.8 0-43.8 19.5-43.4 43.2 0.3 23.2 19.4 42.1 42.7 42.1h40.7c1.1 0 2 0.9 2 2V640c0 1.1-0.9 2-2 2h-39.9c-23.8 0-43.8 19.5-43.4 43.2 0.3 23.2 19.4 42.1 42.7 42.1h40.7c1.1 0 2 0.9 2 2v81.3c0 1.1-0.9 2-2 2h-39.9c-23.8 0-43.8 19.5-43.4 43.2 0.3 23.2 19.4 42.1 42.7 42.1h42.7c0 23.5 19.2 42.7 42.7 42.7h597.3c23.5 0 42.7-19.2 42.7-42.7V130c-0.5-23.4-19.7-42.6-43.2-42.6z m-98.6 517.5c-9.5 14.3-23 25.3-38.9 31.9-10.6 4.4-21.7 6.6-33.2 6.6-23.1 0-44.9-9-61.3-25.4l-108-108.1V556c0 22.8-8.7 44.4-24.5 60.8-16.1 16.7-37.7 26.2-60.7 26.6h-1.5c-47.8 0-86.7-38.9-86.7-86.7v-256c0-17.2 5.1-33.8 14.6-48.1 9.5-14.3 23-25.3 38.9-31.9 10.6-4.4 21.7-6.6 33.2-6.6 23.1 0 44.9 9 61.3 25.4l108 108v-46.1c0-22.8 8.7-44.4 24.5-60.8 16.1-16.7 37.7-26.2 60.7-26.6h1.5c47.8 0 86.7 38.9 86.7 86.7v256c0 17.2-5 33.9-14.6 48.2z" fill="#009F72" p-id="13231"></path></svg>