<?xml version="1.0" standalone="no"?><!DOCTYPE svg PUBLIC "-//W3C//DTD SVG 1.1//EN" "http://www.w3.org/Graphics/SVG/1.1/DTD/svg11.dtd"><svg t="1600153432261" class="icon" viewBox="0 0 1024 1024" version="1.1" xmlns="http://www.w3.org/2000/svg" p-id="16144" xmlns:xlink="http://www.w3.org/1999/xlink" width="290" height="290"><defs><style type="text/css"></style></defs><path d="M837 715h-33V530c0-35.29-28.71-64-64-64H544V309h96c35.29 0 64-28.71 64-64V129c0-35.29-28.71-64-64-64H384c-35.29 0-64 28.71-64 64v116c0 35.29 28.71 64 64 64h96v157H284c-35.29 0-64 28.71-64 64v185h-32c-67.271 0-122 54.729-122 122s54.729 122 122 122h140c67.271 0 122-54.729 122-122s-54.729-122-122-122h-44V530h456v185h-43c-67.271 0-122 54.729-122 122s54.729 122 122 122h140c67.271 0 122-54.729 122-122s-54.729-122-122-122zM384 129h256l0.04 115.998s-0.013 0.002-0.04 0.002H384V129z m2 708c0 31.981-26.019 58-58 58H188c-31.981 0-58-26.019-58-58s26.019-58 58-58h140c31.981 0 58 26.019 58 58z m451 58H697c-31.981 0-58-26.019-58-58s26.019-58 58-58h140c31.981 0 58 26.019 58 58s-26.019 58-58 58z" fill="#1A1A1C" p-id="16145"></path></svg>