<?xml version="1.0" standalone="no"?><!DOCTYPE svg PUBLIC "-//W3C//DTD SVG 1.1//EN" "http://www.w3.org/Graphics/SVG/1.1/DTD/svg11.dtd"><svg t="1600153289435" class="icon" viewBox="0 0 1024 1024" version="1.1" xmlns="http://www.w3.org/2000/svg" p-id="12149" xmlns:xlink="http://www.w3.org/1999/xlink" width="290" height="290"><defs><style type="text/css"></style></defs><path d="M960 416.4c0 41-33.2 74.4-74.4 74.4-41 0-74.4-33.2-74.4-74.4 0-41 33.2-74.4 74.4-74.4C926.6 342 960 375.4 960 416.4zM885.2 278c-76.2 0-138 61.4-138.8 137.4L660 539.4c-3.6-0.4-7.2-0.6-10.8-0.6-19.4 0-37.4 5.4-52.8 14.6l-391.6-157.4c-10.2-46.4-51.8-81.4-101.2-81.4C46.6 314.4 0 361.2 0 418.2c0 57 46.6 103.6 103.6 103.6 19.4 0 37.4-5.4 52.8-14.6L548 664.4c10.2 46.6 51.6 81.6 101.2 81.6 53.6 0 98-41.2 103-93.4l133-97.2c76.6 0 138.8-62 138.8-138.6C1024 340.2 961.8 278 885.2 278zM885.2 323.8c51.4 0 93 41.8 93 93 0 51.4-41.8 92.8-93 92.8-51.4 0-93-41.6-93-92.8C792.2 365.4 833.8 323.8 885.2 323.8zM103.6 341.8c29.2 0 54.6 16.4 67.4 40.4l-37.8-15.2 0 0.2c-30.6-11-64.4 4-76.6 34.2-12.2 30.4 1.8 64.6 31.4 77.8l0 0.2 32.2 12.8c-5.2 1.2-10.8 1.8-16.4 1.8-42.2 0-76.2-34-76.2-76.2C27.4 376 61.4 341.8 103.6 341.8zM649.2 566.2c42.2 0 76.2 34 76.2 76.2 0 42.2-34 76.2-76.2 76.2-29.4 0-54.8-16.4-67.4-40.6 12.6 5 25 10 37.6 15.2 31 12.4 66.4-2.6 78.8-33.6 12.4-31-2.6-66.2-33.8-78.8l-31.8-12.8C638.2 567 643.6 566.2 649.2 566.2z" p-id="12150"></path></svg>