<?xml version="1.0" standalone="no"?><!DOCTYPE svg PUBLIC "-//W3C//DTD SVG 1.1//EN" "http://www.w3.org/Graphics/SVG/1.1/DTD/svg11.dtd"><svg t="1600152884343" class="icon" viewBox="0 0 1024 1024" version="1.1" xmlns="http://www.w3.org/2000/svg" p-id="7837" xmlns:xlink="http://www.w3.org/1999/xlink" width="290" height="290"><defs><style type="text/css"></style></defs><path d="M235.393897 612.156015a64.703297 181.169231 41.338 1 0 239.324474-272.053225 64.703297 181.169231 41.338 1 0-239.324474 272.053225Z" fill="#F40F3B" p-id="7838"></path><path d="M443.569317 600.913626a64.703297 181.169231 41.338 1 0 239.324474-272.053224 64.703297 181.169231 41.338 1 0-239.324474 272.053224Z" fill="#F40F3B" p-id="7839"></path><path d="M593.238947 628.588632a55.701099 156.413187 54.611 1 0 255.028258-181.16547 55.701099 156.413187 54.611 1 0-255.028258 181.16547Z" fill="#F40F3B" p-id="7840"></path><path d="M219.428571 621.714286a289.758242 210.426374 0 1 0 579.516484 0 289.758242 210.426374 0 1 0-579.516484 0Z" fill="#F40F3B" p-id="7841"></path><path d="M301.010989 624.527473a205.362637 149.098901 0 1 0 410.725275 0 205.362637 149.098901 0 1 0-410.725275 0Z" fill="#FFFFFF" p-id="7842"></path><path d="M506.373626 624.527473m-73.142857 0a73.142857 73.142857 0 1 0 146.285715 0 73.142857 73.142857 0 1 0-146.285715 0Z" fill="#0A0A0A" p-id="7843"></path><path d="M478.241758 647.032967m-16.879121 0a16.879121 16.879121 0 1 0 33.758242 0 16.879121 16.879121 0 1 0-33.758242 0Z" fill="#F7F9F9" p-id="7844"></path><path d="M534.505495 607.648352m-7.314286 0a7.314286 7.314286 0 1 0 14.628571 0 7.314286 7.314286 0 1 0-14.628571 0Z" fill="#F7F9F9" p-id="7845"></path><path d="M768.562637 328.017582s-34.320879-25.881319-55.138461-34.883516c-20.817582-9.002198-63.578022-16.316484-63.578022-16.316484-4.501099-1.687912-6.751648-7.314286-4.501099-11.815384 1.687912-4.501099 7.314286-6.751648 11.815385-4.501099 0 0 37.134066 5.063736 63.015384 15.753846s55.701099 34.883516 55.701099 34.883517c4.501099 1.687912 6.751648 7.314286 4.501099 11.815384-2.250549 5.063736-7.314286 6.751648-11.815385 5.063736z" fill="#F9F9F9" p-id="7846"></path><path d="M827.63956 284.131868s-50.637363-37.696703-81.582417-51.2c-30.945055-12.940659-93.397802-23.630769-93.397802-23.630769-6.751648-2.813187-9.564835-10.69011-6.751649-16.879121 2.813187-6.751648 10.69011-9.564835 16.879121-6.751648 0 0 54.575824 7.314286 92.835165 23.630769 38.259341 16.316484 82.145055 51.2 82.145055 51.2 6.751648 2.813187 9.564835 10.69011 6.751648 16.879121-2.250549 6.751648-10.127473 9.564835-16.879121 6.751648z" fill="#FCF7F8" p-id="7847"></path><path d="M884.465934 244.184615s-65.265934-48.949451-105.213187-65.828571-119.841758-30.382418-119.841758-30.382418c-8.43956-3.375824-12.378022-13.503297-9.002198-21.942857 3.375824-8.43956 13.503297-12.378022 21.942857-9.002198 0 0 70.32967 9.564835 119.279121 30.382418 49.512088 20.817582 105.775824 65.828571 105.775824 65.828571 8.43956 3.375824 12.378022 13.503297 9.002198 21.942858-3.938462 8.43956-13.503297 12.378022-21.942857 9.002197z" fill="#FCFAFA" p-id="7848"></path></svg>